<?xml version="1.0" encoding="UTF-8"?>
<svg version="1.1" viewBox="0 0 400 50"
  xmlns="http://www.w3.org/2000/svg">
  <title>SpaceX Logo</title>
  <g class="letter_s" fill="#fff">
    <path class="fill-white" d="m37.5 30.5h-26.6v-6.6h34.3c-0.9-2.8-3.8-5.4-8.9-5.4h-24.9c-5.7 0-9 2.1-9 6.7v4.9c0 4 3.4 6.3 8.4 6.3h26.9v7h-36.2c0.9 3.8 3.8 5.8 9 5.8h27.1c5.7 0 8.5-2.2 8.5-6.9v-4.9c0-4.3-3.3-6.6-8.6-6.9z" fill="#fff"/>
  </g>
  <g class="letter_p" fill="#fff">
    <path class="fill-white" d="m91.8 18.6h-32.8v30.7h9.3v-11.8h24.2c6.7 0 10.4-2.3 10.4-7.7v-3.4c-0.1-5-4.3-7.8-11.1-7.8zm3 9.8c0 2.2-0.4 3.4-4 3.4h-22.5l0.1-8h22c4 0 4.5 1.2 4.5 3.3v1.3z" fill="#fff"/>
  </g>
  <g class="letter_a" fill="#fff">
    <polygon class="fill-white" points="129.9 17.3 124.3 24.2 133.8 37.3 114 37.3 109.1 42.5 137.7 42.5 142.6 49.3 153.6 49.3" fill="#fff"/>
  </g>
  <g class="letter_c" fill="#fff">
    <path class="fill-white" d="m171.4 23.9h34.8c-0.9-3.6-4.4-5.4-9.4-5.4h-26c-4.5 0-8.8 1.8-8.8 6.7v17.2c0 4.9 4.3 6.7 8.8 6.7h26.3c6 0 8.1-1.7 9.1-5.8h-34.8v-19.4z" fill="#fff"/>
  </g>
  <g class="letter_e" fill="#fff">
    <polygon class="fill-white" points="228.3 43.5 228.3 34.1 247 34.1 247 28.9 218.9 28.9 218.9 49.3 260.4 49.3 260.4 43.5"/>
    <rect class="fill-white" x="219.9" y="18.6" width="41.9" height="5.4"/>
  </g>
  <g class="letter_x" fill="#fff">
    <path class="fill-white" d="M287.6,18.6H273l17.2,12.6c2.5-1.7,5.4-3.5,8-5L287.6,18.6z"/>
    <path class="fill-white" d="m308.8 34.3c-2.5 1.7-5 3.6-7.4 5.4l13 9.5h14.7l-20.3-14.9z"/>
  </g>
  <g class="letter_swoosh" fill="#fff">
    <path class="fill-white" d="m399 0.7c-80 4.6-117 38.8-125.3 46.9l-1.7 1.6h14.8c40-40.1 97.5-47.2 112.2-48.5z" fill="#fff"/>
  </g>
</svg>
